<svg width="32" height="29" viewBox="0 0 32 29" fill="none" xmlns="http://www.w3.org/2000/svg">
<path d="M15.1021 10.6028L15.6967 10.1453C15.9484 9.95157 16.3555 9.95157 16.6046 10.1453L21.8112 14.1496C22.0629 14.3434 22.0629 14.6566 21.8112 14.8483L16.6046 18.8547C16.3529 19.0484 15.9458 19.0484 15.6967 18.8547L15.1021 18.3972C14.8477 18.2014 14.853 17.882 15.1128 17.6903L18.3401 15.3244H10.6428C10.2866 15.3244 10 15.1038 10 14.8297V14.1703C10 13.8962 10.2866 13.6756 10.6428 13.6756H18.3401L15.1128 11.3097C14.8504 11.118 14.845 10.7986 15.1021 10.6028Z" fill="white"/>
</svg>
