<svg width="23" height="21" viewBox="0 0 23 21" fill="none" xmlns="http://www.w3.org/2000/svg">
<path d="M11.5 4.06452C9.04234 4.06452 7.04839 5.88508 7.04839 8.12903C7.04839 10.373 9.04234 12.1935 11.5 12.1935C13.9577 12.1935 15.9516 10.373 15.9516 8.12903C15.9516 5.88508 13.9577 4.06452 11.5 4.06452ZM11.5 10.1613C10.2712 10.1613 9.27419 9.25101 9.27419 8.12903C9.27419 7.00706 10.2712 6.09677 11.5 6.09677C12.7288 6.09677 13.7258 7.00706 13.7258 8.12903C13.7258 9.25101 12.7288 10.1613 11.5 10.1613ZM11.5 0C5.14718 0 0 4.6996 0 10.5C0 16.3004 5.14718 21 11.5 21C17.8528 21 23 16.3004 23 10.5C23 4.6996 17.8528 0 11.5 0ZM11.5 18.9677C9.19536 18.9677 7.09012 18.1929 5.46714 16.9185C6.15806 15.9448 7.34052 15.2843 8.69456 15.2462C9.65907 15.5171 10.5772 15.6526 11.5 15.6526C12.4228 15.6526 13.3409 15.5214 14.3054 15.2462C15.6595 15.2885 16.8419 15.9448 17.5329 16.9185C15.9099 18.1929 13.8046 18.9677 11.5 18.9677ZM19.0446 15.4071C17.9131 14.0776 16.1649 13.2097 14.171 13.2097C13.698 13.2097 12.9653 13.6161 11.5 13.6161C10.0393 13.6161 9.30202 13.2097 8.82903 13.2097C6.83972 13.2097 5.09153 14.0776 3.95544 15.4071C2.87036 14.0226 2.22581 12.329 2.22581 10.5C2.22581 5.83004 6.38528 2.03226 11.5 2.03226C16.6147 2.03226 20.7742 5.83004 20.7742 10.5C20.7742 12.329 20.1296 14.0226 19.0446 15.4071Z" fill="black"/>
</svg>
