<svg width="23" height="19" viewBox="0 0 23 19" fill="none" xmlns="http://www.w3.org/2000/svg">
<path d="M21.7394 15.8964L17.5563 12.4078C17.3675 12.2504 17.1116 12.1629 16.8431 12.1629H16.1592C17.3172 10.9277 18.0053 9.37415 18.0053 7.68411C18.0053 3.66371 14.0991 0.406097 9.27825 0.406097C4.45742 0.406097 0.551239 3.66371 0.551239 7.68411C0.551239 11.7045 4.45742 14.9621 9.27825 14.9621C11.3048 14.9621 13.1677 14.3883 14.6487 13.4226V13.9929C14.6487 14.2168 14.7536 14.4303 14.9424 14.5877L19.1255 18.0763C19.5199 18.4052 20.1577 18.4052 20.5479 18.0763L21.7352 17.0861C22.1296 16.7571 22.1296 16.2253 21.7394 15.8964ZM9.27825 12.1629C6.31191 12.1629 3.90778 10.1614 3.90778 7.68411C3.90778 5.21029 6.30771 3.20533 9.27825 3.20533C12.2446 3.20533 14.6487 5.20679 14.6487 7.68411C14.6487 10.1579 12.2488 12.1629 9.27825 12.1629Z" fill="black" fill-opacity="0.8"/>
</svg>
